<?xml version="1.0" encoding="UTF-8" standalone="no"?>
<svg width="160px" height="26px" viewBox="0 0 160 26" version="1.1" xmlns="http://www.w3.org/2000/svg" xmlns:xlink="http://www.w3.org/1999/xlink">
    <!-- Generator: Sketch 39.1 (31720) - http://www.bohemiancoding.com/sketch -->
    <title>Group 12 Copy 2</title>
    <desc>Created with Sketch.</desc>
    <defs></defs>
    <g id="Homepage" stroke="none" stroke-width="1" fill="none" fill-rule="evenodd">
        <g id="Homepage---Mobile" transform="translate(-31.000000, -35.000000)">
            <g id="Group-12-Copy-2" transform="translate(31.000000, 35.000000)">
                <polygon id="Fill-2" fill="#89FED4" points="153.08444 25.9826373 159.976814 25.9826373 159.976814 0 153.08444 0"></polygon>
                <g id="Group-10" transform="translate(0.000000, 4.425532)" fill="#FFFFFF">
                    <polygon id="Fill-3" points="79.0001411 19.1957766 82.7946811 19.1957766 82.7946811 15.3445596 79.0001411 15.3445596"></polygon>
                    <path d="M138.403157,19.2357416 L138.403157,0.727267068 L138.403157,19.2357416 Z" id="Fill-1"></path>
                    <path d="M7.79685862,11.6524538 C7.79685862,10.7286166 7.77501872,9.96990131 7.42558046,9.42319622 C7.07831316,8.92558266 6.52141764,8.66448097 5.80287218,8.66448097 C3.94648141,8.66448097 3.13402008,9.87396571 3.13402008,11.7952776 L3.13402008,19.1926742 L1.73677072e-05,19.1926742 L1.73677072e-05,0.510572492 L3.13402008,0.510572492 L3.13402008,8.5239047 L3.15585997,8.5239047 C3.64289389,7.38580978 4.87465509,6.27010131 6.91670665,6.27010131 C9.70131452,6.27010131 10.9309047,7.71830131 10.9309047,10.7754606 L10.9309047,19.1926742 L7.79685862,19.1926742 L7.79685862,11.6524538 Z" id="Fill-4"></path>
                    <path d="M18.1684972,17.1776433 C19.5837047,17.1776433 21.0688608,16.0395925 21.0688608,13.6675111 L21.0688608,13.502345 C18.8652027,13.620623 17.6814632,13.6920569 17.0546627,14.1428264 C16.5916396,14.4976162 16.381968,14.9729315 16.381968,15.5173891 C16.381968,16.6309383 17.0786735,17.1776433 18.1684972,17.1776433 M17.4499517,19.4537891 C15.1283669,19.4537891 13.2719761,18.3625823 13.2719761,15.6356671 C13.2719761,14.1896705 13.8987767,13.1475552 15.1524212,12.4580264 C16.4758839,11.7484027 18.0767522,11.5810332 21.0688608,11.4627552 L21.0688608,10.8714094 C21.0688608,9.2825891 20.3503153,8.49932809 18.9110535,8.49932809 C17.4259408,8.49932809 16.847162,9.32947724 16.7773004,10.3024061 L13.7830209,10.3024061 C13.8987767,7.9303247 15.7333275,6.27007046 18.8652027,6.27007046 C22.0909503,6.27007046 23.9931919,7.55094503 23.9931919,10.9896874 L23.9931919,16.0150467 C23.9931919,16.5840501 24.1788526,16.773762 24.7598024,16.773762 L25.2926871,16.773762 L25.2926871,19.1926874 L23.8534252,19.1926874 C22.3464727,19.1926874 21.5558513,18.8378976 21.3025433,17.438745 L21.2086274,17.438745 C20.5359327,18.5767959 19.2823316,19.4537891 17.4499517,19.4537891" id="Fill-6"></path>
                    <path d="M32.7457085,8.52389147 C30.6578062,8.52389147 29.9152499,10.4206576 29.9152499,12.8150813 C29.9152499,15.1626169 30.4940288,17.2022067 32.7216977,17.2022067 C34.5322377,17.2022067 35.204889,15.8721966 35.3206448,14.7118474 L38.4306366,14.7118474 C38.2450193,17.8403966 35.8076787,19.5251966 32.7216977,19.5251966 C28.6616488,19.5251966 26.6895023,17.059383 26.6895023,12.8864711 C26.6895023,8.64216944 28.963022,6.24774571 32.7675484,6.24774571 C35.7858388,6.24774571 38.1991251,7.74063046 38.3847859,10.8468813 L35.204889,10.8468813 C35.0432825,9.54370842 34.3225661,8.52389147 32.7457085,8.52389147" id="Fill-8"></path>
                    <polygon id="Fill-10" points="40.8871164 19.192683 40.8871164 0.510581305 43.9272467 0.510581305 43.9272467 12.339744 48.8696185 6.55571351 52.3268776 6.55571351 47.8256456 11.6770084 52.7440065 19.192683 49.2168858 19.192683 45.7595832 13.6675067 43.9272467 15.7784864 43.9272467 19.192683"></polygon>
                    <path d="M59.4557265,8.45248402 C57.6910806,8.45248402 56.8567794,9.59053486 56.601257,11.5810332 L62.0765134,11.5810332 L62.0765134,11.4404569 C62.0066084,9.80254503 61.1941905,8.45248402 59.4557265,8.45248402 M59.5234171,19.5251789 C55.4175175,19.5251789 53.3754659,16.8451518 53.3754659,12.8864535 C53.3754659,9.06837554 55.579124,6.24777215 59.5015772,6.24777215 C63.5397862,6.24777215 65.3022611,9.18665351 65.3022611,12.6253959 L65.3022611,13.7879925 L56.5772027,13.7879925 C56.7628635,16.0641383 57.7150915,17.2244874 59.5933221,17.2244874 C61.2182014,17.2244874 61.751086,16.4434738 62.0546735,15.6356671 L65.1624944,15.6356671 C64.6754605,18.0077484 62.7492081,19.5251789 59.5234171,19.5251789" id="Fill-12"></path>
                    <path d="M70.9718274,13.8632911 L70.9718274,19.1957589 L67.869955,19.1957589 L67.869955,6.67596571 L70.8563756,6.67596571 L70.8563756,9.61189453 L70.9021395,9.61189453 C71.8061286,7.28612842 73.3570214,6.44161317 75.5788722,6.44161317 C76.387035,6.44161317 77.3127772,6.60519283 77.8464868,6.88599283 L77.8464868,9.61189453 C77.1755723,9.35321656 76.3412711,9.16531147 75.2543132,9.16531147 C72.4530757,9.16531147 70.9718274,10.9516437 70.9718274,13.8632911" id="Fill-14"></path>
                    <path d="M87.7063772,6.67594368 L88.5624315,14.5685301 C88.6321628,15.0372352 88.6560868,15.5788725 88.6800543,16.0254555 C88.7018507,16.2819301 88.7018507,16.540564 88.7258182,16.7771199 L88.8869905,16.7771199 C88.8869905,16.540564 88.9109579,16.2819301 88.9327544,16.0254555 C88.9567218,15.5788725 89.0264098,15.0151132 89.0960977,14.5442047 L90.2070231,6.67594368 L93.3067246,6.67594368 L94.4176499,14.5928555 C94.4873379,15.0615606 94.5113053,15.5788725 94.5810366,16.0254555 C94.6049607,16.2819301 94.6049607,16.5184861 94.6267571,16.7771199 L94.7879294,16.7771199 C94.8118969,16.540564 94.8118969,16.2819301 94.8358643,16.0254555 C94.8576608,15.5788725 94.8816282,15.0372352 94.9513161,14.5685301 L95.8073704,6.67594368 L98.3755767,6.67594368 L96.5480163,19.195781 L93.0758209,19.195781 L92.0803474,11.9376827 C91.988863,11.3739233 91.9431425,10.7637166 91.8734111,10.2928522 C91.8494437,10.0120522 91.8254763,9.75337419 91.8037232,9.49474029 L91.6425075,9.49474029 C91.6185834,9.75337419 91.594616,10.0120522 91.5728195,10.2928522 C91.5031316,10.7637166 91.4551967,11.3739233 91.3876798,11.9376827 L90.3922062,19.195781 L86.9200109,19.195781 L85.068483,6.67594368 L87.7063772,6.67594368 Z" id="Fill-16"></path>
                    <path d="M103.210981,12.9480118 C103.210981,15.5545779 104.021315,17.2922593 106.034015,17.2922593 C108.094693,17.2922593 108.857092,15.483805 108.857092,12.9480118 C108.857092,10.3878932 108.000994,8.62588639 106.034015,8.62588639 C104.021315,8.62588639 103.210981,10.4100152 103.210981,12.9480118 M99.947936,12.9480118 C99.947936,8.78946605 102.215507,6.3708491 106.034015,6.3708491 C109.830769,6.3708491 112.120137,8.78946605 112.120137,12.9480118 C112.120137,17.0579067 109.782834,19.5472966 106.010047,19.5472966 C102.169787,19.5472966 99.947936,17.0115033 99.947936,12.9480118" id="Fill-18"></path>
                    <path d="M117.433153,13.8632911 L117.433153,19.1957589 L114.33128,19.1957589 L114.33128,6.67596571 L117.317701,6.67596571 L117.317701,9.61189453 L117.363465,9.61189453 C118.267411,7.28612842 119.816176,6.44161317 122.038027,6.44161317 C122.84836,6.44161317 123.774103,6.60519283 124.307769,6.88599283 L124.307769,9.61189453 C123.636898,9.35321656 122.802596,9.16531147 121.715639,9.16531147 C118.914401,9.16531147 117.433153,10.9516437 117.433153,13.8632911" id="Fill-20"></path>
                    <polygon id="Fill-22" points="126.598956 19.195283 126.598956 0.686367746 129.631097 0.686367746 129.631097 12.4058898 134.56053 6.67544571 138.008758 6.67544571 133.519336 11.7492796 138.424801 19.195283 134.906885 19.195283 131.458701 13.7213135 129.631097 15.8127271 129.631097 19.195283"></polygon>
                    <path d="M145.077627,8.62587758 C143.66611,8.62587758 142.855776,9.16531147 142.855776,10.0120742 C142.855776,10.8809149 143.341551,11.2324437 144.661584,11.4446742 L146.767983,11.7961589 C149.521329,12.2427861 150.516802,13.3945861 150.516802,15.2958911 C150.516802,18.0925657 148.434371,19.5251657 145.031907,19.5251657 C141.490023,19.5251657 139.753904,18.209742 139.501247,15.5545691 L142.415766,15.5545691 C142.600905,16.6577623 143.204303,17.2922505 145.031907,17.2922505 C146.722219,17.2922505 147.578316,16.799264 147.578316,15.7889216 C147.578316,14.9443623 147.092542,14.639281 145.67881,14.380603 L143.504938,14.0268708 C141.422463,13.7217894 139.941258,12.6893691 139.941258,10.3392776 C139.941258,8.08424029 141.83855,6.37084029 145.101595,6.37084029 C148.549823,6.37084029 150.100715,8.03779283 150.285899,10.104925 L147.347413,10.104925 C147.229747,9.11890809 146.467391,8.62587758 145.077627,8.62587758" id="Fill-24"></path>
                </g>
            </g>
        </g>
    </g>
</svg>
